<svg width="500" height="290" viewBox="0 0 500 290" fill="none" xmlns="http://www.w3.org/2000/svg">
<path d="M77.8383 192.954H439.068C445.707 192.954 451.088 188.248 451.088 182.437V10.5173C451.088 4.71067 445.707 0 439.068 0H77.8383C71.1998 0 65.8181 4.70639 65.8181 10.5173V182.436C65.8181 188.245 71.1998 192.954 77.8383 192.954Z" fill="white"/>
<path d="M499.338 289.941H0.664021C0.48791 289.941 0.319012 289.87 0.194482 289.743C0.0699533 289.616 0 289.444 0 289.264C0 289.084 0.0699533 288.912 0.194482 288.785C0.319012 288.658 0.48791 288.586 0.664021 288.586H499.336C499.512 288.586 499.681 288.658 499.805 288.785C499.93 288.912 500 289.084 500 289.264C500 289.444 499.93 289.616 499.805 289.743C499.681 289.87 499.512 289.941 499.336 289.941H499.338Z" fill="#3F3D56"/>
<path d="M156.329 59.6711C158.32 59.6711 159.935 58.0237 159.935 55.9916C159.935 53.9594 158.32 52.312 156.329 52.312C154.337 52.312 152.723 53.9594 152.723 55.9916C152.723 58.0237 154.337 59.6711 156.329 59.6711Z" fill="#F2F2F2"/>
<path d="M141.958 59.6711C143.949 59.6711 145.564 58.0237 145.564 55.9916C145.564 53.9594 143.949 52.312 141.958 52.312C139.966 52.312 138.352 53.9594 138.352 55.9916C138.352 58.0237 139.966 59.6711 141.958 59.6711Z" fill="#F2F2F2"/>
<path d="M127.587 59.6711C129.578 59.6711 131.193 58.0237 131.193 55.9916C131.193 53.9594 129.578 52.312 127.587 52.312C125.595 52.312 123.98 53.9594 123.98 55.9916C123.98 58.0237 125.595 59.6711 127.587 59.6711Z" fill="#F2F2F2"/>
<path d="M113.215 59.6711C115.206 59.6711 116.821 58.0237 116.821 55.9916C116.821 53.9594 115.206 52.312 113.215 52.312C111.223 52.312 109.608 53.9594 109.608 55.9916C109.608 58.0237 111.223 59.6711 113.215 59.6711Z" fill="#F2F2F2"/>
<path d="M156.329 75.0334C158.32 75.0334 159.935 73.386 159.935 71.3539C159.935 69.3217 158.32 67.6743 156.329 67.6743C154.337 67.6743 152.723 69.3217 152.723 71.3539C152.723 73.386 154.337 75.0334 156.329 75.0334Z" fill="#F2F2F2"/>
<path d="M141.958 75.0334C143.949 75.0334 145.564 73.386 145.564 71.3539C145.564 69.3217 143.949 67.6743 141.958 67.6743C139.966 67.6743 138.352 69.3217 138.352 71.3539C138.352 73.386 139.966 75.0334 141.958 75.0334Z" fill="#F2F2F2"/>
<path d="M127.587 75.0334C129.578 75.0334 131.193 73.386 131.193 71.3539C131.193 69.3217 129.578 67.6743 127.587 67.6743C125.595 67.6743 123.98 69.3217 123.98 71.3539C123.98 73.386 125.595 75.0334 127.587 75.0334Z" fill="#F2F2F2"/>
<path d="M113.215 75.0334C115.206 75.0334 116.821 73.386 116.821 71.3539C116.821 69.3217 115.206 67.6743 113.215 67.6743C111.223 67.6743 109.608 69.3217 109.608 71.3539C109.608 73.386 111.223 75.0334 113.215 75.0334Z" fill="#F2F2F2"/>
<path d="M156.329 90.3957C158.32 90.3957 159.935 88.7483 159.935 86.7162C159.935 84.684 158.32 83.0366 156.329 83.0366C154.337 83.0366 152.723 84.684 152.723 86.7162C152.723 88.7483 154.337 90.3957 156.329 90.3957Z" fill="#F2F2F2"/>
<path d="M141.958 90.3957C143.949 90.3957 145.564 88.7483 145.564 86.7162C145.564 84.684 143.949 83.0366 141.958 83.0366C139.966 83.0366 138.352 84.684 138.352 86.7162C138.352 88.7483 139.966 90.3957 141.958 90.3957Z" fill="#F2F2F2"/>
<path d="M127.587 90.3957C129.578 90.3957 131.193 88.7483 131.193 86.7162C131.193 84.684 129.578 83.0366 127.587 83.0366C125.595 83.0366 123.98 84.684 123.98 86.7162C123.98 88.7483 125.595 90.3957 127.587 90.3957Z" fill="#F2F2F2"/>
<path d="M113.215 90.3957C115.206 90.3957 116.821 88.7483 116.821 86.7162C116.821 84.684 115.206 83.0366 113.215 83.0366C111.223 83.0366 109.608 84.684 109.608 86.7162C109.608 88.7483 111.223 90.3957 113.215 90.3957Z" fill="#F2F2F2"/>
<path d="M156.329 105.757C158.32 105.757 159.935 104.11 159.935 102.077C159.935 100.045 158.32 98.3979 156.329 98.3979C154.337 98.3979 152.723 100.045 152.723 102.077C152.723 104.11 154.337 105.757 156.329 105.757Z" fill="#F2F2F2"/>
<path d="M141.958 105.757C143.949 105.757 145.564 104.11 145.564 102.077C145.564 100.045 143.949 98.3979 141.958 98.3979C139.966 98.3979 138.352 100.045 138.352 102.077C138.352 104.11 139.966 105.757 141.958 105.757Z" fill="#F2F2F2"/>
<path d="M127.587 105.757C129.578 105.757 131.193 104.11 131.193 102.077C131.193 100.045 129.578 98.3979 127.587 98.3979C125.595 98.3979 123.98 100.045 123.98 102.077C123.98 104.11 125.595 105.757 127.587 105.757Z" fill="#F2F2F2"/>
<path d="M113.215 105.757C115.206 105.757 116.821 104.11 116.821 102.077C116.821 100.045 115.206 98.3979 113.215 98.3979C111.223 98.3979 109.608 100.045 109.608 102.077C109.608 104.11 111.223 105.757 113.215 105.757Z" fill="#F2F2F2"/>
<path d="M156.329 121.119C158.32 121.119 159.935 119.471 159.935 117.439C159.935 115.407 158.32 113.76 156.329 113.76C154.337 113.76 152.723 115.407 152.723 117.439C152.723 119.471 154.337 121.119 156.329 121.119Z" fill="#F2F2F2"/>
<path d="M141.958 121.119C143.949 121.119 145.564 119.471 145.564 117.439C145.564 115.407 143.949 113.76 141.958 113.76C139.966 113.76 138.352 115.407 138.352 117.439C138.352 119.471 139.966 121.119 141.958 121.119Z" fill="#F2F2F2"/>
<path d="M127.587 121.119C129.578 121.119 131.193 119.471 131.193 117.439C131.193 115.407 129.578 113.76 127.587 113.76C125.595 113.76 123.98 115.407 123.98 117.439C123.98 119.471 125.595 121.119 127.587 121.119Z" fill="#F2F2F2"/>
<path d="M113.215 121.119C115.206 121.119 116.821 119.471 116.821 117.439C116.821 115.407 115.206 113.76 113.215 113.76C111.223 113.76 109.608 115.407 109.608 117.439C109.608 119.471 111.223 121.119 113.215 121.119Z" fill="#F2F2F2"/>
<path d="M156.329 136.481C158.32 136.481 159.935 134.833 159.935 132.801C159.935 130.769 158.32 129.122 156.329 129.122C154.337 129.122 152.723 130.769 152.723 132.801C152.723 134.833 154.337 136.481 156.329 136.481Z" fill="#F2F2F2"/>
<path d="M141.958 136.481C143.949 136.481 145.564 134.833 145.564 132.801C145.564 130.769 143.949 129.122 141.958 129.122C139.966 129.122 138.352 130.769 138.352 132.801C138.352 134.833 139.966 136.481 141.958 136.481Z" fill="#F2F2F2"/>
<path d="M127.587 136.481C129.578 136.481 131.193 134.833 131.193 132.801C131.193 130.769 129.578 129.122 127.587 129.122C125.595 129.122 123.98 130.769 123.98 132.801C123.98 134.833 125.595 136.481 127.587 136.481Z" fill="#F2F2F2"/>
<path d="M113.215 136.481C115.206 136.481 116.821 134.833 116.821 132.801C116.821 130.769 115.206 129.122 113.215 129.122C111.223 129.122 109.608 130.769 109.608 132.801C109.608 134.833 111.223 136.481 113.215 136.481Z" fill="#F2F2F2"/>
<path d="M124.642 233.178V234.316C124.643 236.202 125.378 238.01 126.684 239.344C127.991 240.677 129.764 241.427 131.612 241.429H181.795C183.644 241.428 185.416 240.679 186.723 239.345C188.03 238.012 188.765 236.203 188.766 234.317V233.178C188.769 231.513 188.196 229.901 187.148 228.626C186.799 228.202 186.405 227.821 185.972 227.488C185.972 227.488 158.381 226.85 158.381 226.065H131.61C129.763 226.069 127.992 226.819 126.685 228.152C125.379 229.485 124.644 231.292 124.642 233.178Z" fill="#CCCCCC"/>
<path d="M160.732 241.145H153.483V288.937H160.732V241.145Z" fill="#CCCCCC"/>
<path d="M181.365 288.678C181.365 289.476 170.381 288.987 156.83 288.987C143.279 288.987 132.295 289.476 132.295 288.678C132.295 287.879 143.28 281.541 156.83 281.541C170.38 281.541 181.365 287.878 181.365 288.678Z" fill="#CCCCCC"/>
<path d="M171.399 232.212C171.922 231.496 172.285 230.671 172.462 229.796C172.639 228.921 172.626 228.017 172.424 227.147C172.222 226.278 171.835 225.464 171.291 224.764C170.747 224.064 170.059 223.493 169.276 223.094L153.912 169.677L142.213 175.523L160.994 226.193C160.422 227.58 160.369 229.133 160.845 230.557C161.321 231.981 162.292 233.178 163.575 233.92C164.858 234.662 166.363 234.899 167.805 234.584C169.247 234.27 170.526 233.426 171.399 232.214V232.212Z" fill="#A0616A"/>
<path d="M157.393 178.597L144.298 182.214C143.926 182.317 143.536 182.337 143.156 182.272C142.775 182.207 142.412 182.06 142.093 181.839C141.773 181.619 141.503 181.331 141.303 180.995C141.102 180.659 140.974 180.282 140.929 179.891L139.346 166.186C139.093 165.221 139.029 164.214 139.157 163.223C139.285 162.232 139.603 161.277 140.094 160.411C140.584 159.546 141.236 158.787 142.013 158.179C142.791 157.571 143.678 157.125 144.624 156.867C146.535 156.345 148.571 156.619 150.284 157.629C151.133 158.129 151.876 158.795 152.472 159.588C153.068 160.381 153.505 161.286 153.758 162.252L159.153 174.858C159.307 175.219 159.383 175.609 159.376 176.003C159.369 176.397 159.279 176.785 159.112 177.14C158.945 177.495 158.705 177.809 158.408 178.061C158.112 178.312 157.765 178.496 157.393 178.599V178.597Z" fill="#0E0E0E"/>
<path d="M174.821 283.075H181.657L184.909 264.982H174.819L174.821 283.075Z" fill="#A0616A"/>
<path d="M173.077 280.798H186.541C187.667 280.798 188.783 281.024 189.824 281.464C190.865 281.904 191.811 282.549 192.608 283.362C193.404 284.175 194.036 285.14 194.468 286.202C194.899 287.264 195.121 288.403 195.121 289.552V289.837H173.076L173.077 280.798Z" fill="#2F2E41"/>
<path d="M182.757 273.375C182.677 273.375 182.597 273.371 182.517 273.363L173.056 272.66C172.674 272.624 172.304 272.499 171.977 272.294C171.649 272.089 171.372 271.81 171.167 271.479C170.962 271.147 170.834 270.772 170.793 270.382C170.752 269.992 170.8 269.598 170.932 269.23L183.594 240.205C183.684 239.946 183.721 239.671 183.702 239.397C183.683 239.123 183.609 238.856 183.484 238.612C183.359 238.366 183.185 238.15 182.973 237.977C182.76 237.805 182.514 237.68 182.251 237.611C176.297 236.022 161.022 231.795 147.798 226.848C142.133 224.728 138.564 221.664 137.195 217.74C135.387 212.57 138.062 207.855 138.177 207.655L138.267 207.5L150.71 208.654L164.199 209.824L193.76 225.999C196.237 227.366 198.118 229.634 199.029 232.352C199.941 235.071 199.815 238.04 198.678 240.668L185.044 271.857C184.847 272.309 184.526 272.692 184.119 272.962C183.713 273.231 183.239 273.375 182.754 273.375H182.757Z" fill="#2F2E41"/>
<path d="M152.869 151.234C160.433 151.234 166.565 144.978 166.565 137.26C166.565 129.542 160.433 123.286 152.869 123.286C145.306 123.286 139.174 129.542 139.174 137.26C139.174 144.978 145.306 151.234 152.869 151.234Z" fill="#A0616A"/>
<path d="M170.918 282.505H177.754L181.007 264.413H170.917L170.918 282.505Z" fill="#A0616A"/>
<path d="M169.174 280.229H182.637C183.764 280.229 184.88 280.455 185.921 280.895C186.962 281.335 187.908 281.98 188.704 282.793C189.501 283.606 190.133 284.571 190.564 285.633C190.995 286.695 191.217 287.834 191.217 288.983V289.268H169.173L169.174 280.229Z" fill="#2F2E41"/>
<path d="M178.853 275.081C178.773 275.081 178.693 275.077 178.613 275.07L169.152 274.367C168.769 274.331 168.4 274.205 168.072 274C167.745 273.795 167.468 273.516 167.263 273.185C167.057 272.854 166.929 272.479 166.889 272.089C166.848 271.699 166.895 271.305 167.028 270.937L179.689 241.911C179.78 241.652 179.817 241.377 179.798 241.103C179.779 240.829 179.705 240.562 179.58 240.319C179.455 240.073 179.281 239.856 179.068 239.684C178.856 239.511 178.61 239.386 178.347 239.318C172.393 237.729 157.117 233.501 143.894 228.554C138.229 226.434 134.66 223.371 133.291 219.447C131.482 214.277 134.158 209.562 134.273 209.362L134.362 209.207L146.806 210.361L160.295 211.531L189.856 227.705C192.333 229.072 194.214 231.341 195.125 234.059C196.036 236.777 195.911 239.746 194.774 242.374L181.14 273.564C180.942 274.015 180.621 274.399 180.215 274.668C179.809 274.937 179.335 275.081 178.85 275.081L178.853 275.081Z" fill="#2F2E41"/>
<path d="M157.094 159.157L142.597 154.037C142.597 154.037 133.496 161.171 137.868 178.871C140.151 188.005 139.486 197.646 135.972 206.363C135.549 207.442 135.061 208.493 134.512 209.51C134.512 209.51 150.683 229.424 165.738 214.631L159.882 185.901C159.882 185.901 169.082 166.838 157.094 159.157Z" fill="#2F2E41"/>
<path d="M154.571 151.709C152.622 148.732 151.083 144.605 153.23 141.772C155.348 138.977 159.526 139.388 162.771 138.151C167.29 136.428 169.911 131.01 169.093 126.16C168.276 121.309 164.459 117.287 159.912 115.642C155.366 113.997 150.239 114.531 145.786 116.427C140.305 118.759 135.603 123.272 133.632 128.987C131.661 134.702 132.714 141.566 136.807 145.959C141.192 150.669 148.074 151.925 154.44 151.848" fill="#2F2E41"/>
<path d="M141.83 126.316C139.374 128.356 135.626 127.449 132.99 125.659C130.353 123.869 128.213 121.319 125.361 119.914C120.329 117.439 114.251 119.084 109.356 121.826C104.462 124.567 100.123 128.355 94.9528 130.505C89.7825 132.655 83.1848 132.763 79.2701 128.701C78.307 131.548 78.2284 134.63 79.0451 137.525C79.8617 140.42 81.5338 142.988 83.8332 144.878C86.1327 146.768 88.9475 147.888 91.8938 148.085C94.84 148.282 97.7742 147.548 100.296 145.981C105.961 142.46 109.091 135.077 115.444 133.134C118.961 132.059 122.736 132.925 126.287 133.863C129.838 134.8 133.546 135.814 137.129 135.016C140.713 134.218 144.07 130.93 143.614 127.213L141.83 126.316Z" fill="#2F2E41"/>
<path d="M186.414 257.989C184.964 248.378 184.964 238.597 186.414 228.986C186.506 228.414 186.794 227.894 187.226 227.518C187.659 227.143 188.208 226.936 188.776 226.935H211.01C211.37 226.933 211.726 227.016 212.05 227.177C212.374 227.337 212.659 227.571 212.881 227.86C213.108 228.153 213.266 228.495 213.344 228.861C213.422 229.226 213.418 229.604 213.331 229.967C211.251 238.856 211.251 248.119 213.331 257.007C213.418 257.37 213.423 257.749 213.345 258.114C213.267 258.48 213.108 258.822 212.881 259.115C212.659 259.405 212.374 259.638 212.05 259.799C211.726 259.959 211.37 260.042 211.01 260.041H188.776C188.208 260.039 187.659 259.833 187.226 259.457C186.794 259.081 186.506 258.561 186.414 257.989V257.989Z" fill="#0E0E0E"/>
<path d="M204.169 240.973H192.502C192.059 240.972 191.634 240.791 191.32 240.471C191.007 240.152 190.83 239.718 190.829 239.266V238.599C190.83 238.146 191.007 237.713 191.32 237.393C191.634 237.073 192.059 236.893 192.502 236.892H204.17C204.613 236.893 205.038 237.073 205.351 237.393C205.665 237.713 205.842 238.146 205.843 238.599V239.266C205.842 239.718 205.665 240.152 205.351 240.471C205.038 240.791 204.613 240.972 204.17 240.973H204.169Z" fill="white"/>
<path d="M204.169 247.998H192.502C192.059 247.996 191.634 247.816 191.321 247.496C191.007 247.177 190.83 246.743 190.829 246.291V245.624C190.83 245.172 191.007 244.738 191.32 244.418C191.634 244.098 192.059 243.918 192.502 243.917H204.17C204.613 243.918 205.038 244.098 205.351 244.418C205.665 244.738 205.842 245.172 205.843 245.624V246.291C205.841 246.743 205.665 247.177 205.351 247.496C205.038 247.816 204.613 247.996 204.17 247.998H204.169Z" fill="white"/>
<path d="M192.26 229.651C192.592 228.824 192.741 227.933 192.698 227.04C192.656 226.148 192.421 225.276 192.013 224.486C191.604 223.695 191.03 223.006 190.332 222.467C189.634 221.927 188.828 221.55 187.972 221.363L160.015 173.557L150.119 182.201L180.711 226.475C180.497 227.964 180.826 229.482 181.635 230.74C182.444 231.998 183.678 232.909 185.102 233.301C186.526 233.693 188.041 233.538 189.36 232.866C190.68 232.193 191.712 231.051 192.26 229.654V229.651Z" fill="#A0616A"/>
<path d="M165.571 181.308L153.778 188.148C153.443 188.343 153.07 188.462 152.685 188.497C152.3 188.531 151.913 188.481 151.549 188.349C151.185 188.217 150.853 188.006 150.576 187.731C150.299 187.457 150.084 187.124 149.944 186.757L145.056 173.89C144.098 172.133 143.86 170.061 144.395 168.126C144.929 166.19 146.192 164.549 147.908 163.561C149.624 162.573 151.653 162.317 153.553 162.85C155.453 163.383 157.069 164.661 158.048 166.406L166.358 177.237C166.596 177.547 166.765 177.906 166.855 178.289C166.944 178.672 166.952 179.07 166.877 179.457C166.803 179.843 166.647 180.208 166.421 180.528C166.196 180.847 165.905 181.114 165.57 181.308H165.571Z" fill="#2F2E41"/>
<path d="M291.058 198.101H64.6663C63.7165 198.118 62.8115 198.516 62.1459 199.207C61.4803 199.899 61.1074 200.829 61.1074 201.798C61.1074 202.768 61.4803 203.698 62.1459 204.39C62.8115 205.081 63.7165 205.479 64.6663 205.496H71.0759V286.005C71.0672 286.496 71.1544 286.984 71.3326 287.441C71.5108 287.897 71.7764 288.313 72.1138 288.663C72.4512 289.014 72.8537 289.293 73.2977 289.483C73.7418 289.673 74.2185 289.771 74.7001 289.771C75.1816 289.771 75.6583 289.673 76.1024 289.483C76.5465 289.293 76.9489 289.014 77.2863 288.663C77.6237 288.313 77.8893 287.897 78.0675 287.441C78.2457 286.984 78.333 286.496 78.3242 286.005V212.604L118.958 287.751C119.194 288.176 119.51 288.55 119.888 288.85C120.265 289.15 120.698 289.371 121.16 289.5C121.622 289.629 122.104 289.663 122.579 289.6C123.054 289.537 123.512 289.379 123.927 289.135C124.342 288.891 124.705 288.565 124.996 288.176C125.286 287.788 125.499 287.345 125.62 286.872C125.742 286.399 125.771 285.907 125.705 285.423C125.639 284.939 125.48 284.473 125.236 284.052L82.7624 205.497H276.839V205.545L234.388 284.052C234.15 284.473 233.996 284.937 233.934 285.418C233.871 285.9 233.903 286.389 234.026 286.858C234.149 287.327 234.362 287.767 234.651 288.152C234.941 288.538 235.302 288.861 235.714 289.104C236.127 289.347 236.582 289.504 237.054 289.568C237.525 289.631 238.005 289.599 238.465 289.473C238.924 289.348 239.355 289.131 239.733 288.835C240.111 288.54 240.427 288.171 240.665 287.751L276.839 220.853V286.005C276.83 286.496 276.917 286.984 277.095 287.441C277.274 287.897 277.539 288.313 277.876 288.663C278.214 289.014 278.616 289.293 279.06 289.483C279.504 289.673 279.981 289.771 280.463 289.771C280.944 289.771 281.421 289.673 281.865 289.483C282.309 289.293 282.712 289.014 283.049 288.663C283.386 288.313 283.652 287.897 283.83 287.441C284.008 286.984 284.096 286.496 284.087 286.005V207.447L285.141 205.497H291.057C291.538 205.506 292.016 205.417 292.464 205.235C292.911 205.053 293.319 204.782 293.662 204.438C294.006 204.094 294.279 203.683 294.465 203.23C294.651 202.777 294.747 202.29 294.747 201.799C294.747 201.308 294.651 200.821 294.465 200.368C294.279 199.915 294.006 199.504 293.662 199.16C293.319 198.816 292.911 198.545 292.464 198.363C292.016 198.181 291.538 198.092 291.057 198.101L291.058 198.101Z" fill="#3F3D56"/>
<path d="M197.377 195.825H153.326C152.248 195.825 151.374 196.716 151.374 197.816C151.374 198.916 152.248 199.807 153.326 199.807H197.377C198.455 199.807 199.329 198.916 199.329 197.816C199.329 196.716 198.455 195.825 197.377 195.825Z" fill="#CCCCCC"/>
<path d="M226.931 199.808H177.303C176.342 199.806 175.421 199.416 174.742 198.723C174.062 198.03 173.68 197.09 173.679 196.109V168.231C173.68 167.25 174.062 166.31 174.741 165.617C175.421 164.923 176.342 164.533 177.303 164.532H226.931C227.893 164.533 228.814 164.923 229.493 165.617C230.173 166.31 230.555 167.25 230.556 168.231V196.11C230.555 197.09 230.173 198.03 229.493 198.724C228.813 199.417 227.892 199.807 226.931 199.808Z" fill="#CCCCCC"/>
<path d="M202.117 185.584C203.965 185.584 205.463 184.055 205.463 182.17C205.463 180.285 203.965 178.756 202.117 178.756C200.269 178.756 198.771 180.285 198.771 182.17C198.771 184.055 200.269 185.584 202.117 185.584Z" fill="white"/>
<path d="M264.804 131.118V31.2656C264.805 30.1313 265.248 29.0439 266.034 28.2418C266.82 27.4398 267.886 26.9885 268.997 26.9871H346.355C347.467 26.9885 348.532 27.4398 349.318 28.2418C350.105 29.0439 350.547 30.1313 350.548 31.2656V131.118C350.547 132.252 350.105 133.34 349.318 134.142C348.532 134.944 347.467 135.395 346.355 135.397H268.998C267.887 135.395 266.82 134.944 266.034 134.142C265.248 133.34 264.805 132.253 264.804 131.118ZM268.997 27.9369C268.132 27.9379 267.303 28.2889 266.691 28.9129C266.08 29.537 265.736 30.3831 265.735 31.2656V131.118C265.736 132.001 266.08 132.847 266.691 133.471C267.303 134.095 268.132 134.446 268.997 134.447H346.355C347.22 134.446 348.049 134.095 348.66 133.471C349.272 132.846 349.616 132 349.617 131.118V31.2656C349.616 30.3832 349.272 29.5372 348.66 28.9131C348.049 28.2891 347.22 27.938 346.355 27.9369H268.997Z" fill="#E6E6E6" stroke="#0E0E0E"/>
<path d="M312.016 72.8438V52.3404C312.016 51.7731 312.236 51.229 312.63 50.8278C313.023 50.4266 313.556 50.2012 314.112 50.2012H331.14C331.696 50.2012 332.23 50.4266 332.623 50.8278C333.016 51.229 333.237 51.7731 333.237 52.3404V72.8432C333.237 73.4105 333.016 73.9547 332.623 74.3559C332.23 74.7571 331.696 74.9824 331.14 74.9824H314.113C313.837 74.9825 313.565 74.9273 313.31 74.8199C313.056 74.7124 312.825 74.5549 312.63 74.3563C312.435 74.1577 312.281 73.9219 312.175 73.6624C312.07 73.4029 312.016 73.1247 312.016 72.8438Z" fill="#0E0E0E"/>
<path d="M278.93 82.352V61.8492C278.93 61.2819 279.151 60.7377 279.544 60.3365C279.937 59.9353 280.47 59.71 281.026 59.71H298.054C298.61 59.71 299.144 59.9353 299.537 60.3365C299.93 60.7377 300.151 61.2819 300.151 61.8492V82.352C300.151 82.9193 299.93 83.4635 299.537 83.8646C299.144 84.2658 298.61 84.4912 298.054 84.4912H281.027C280.752 84.4913 280.479 84.436 280.224 84.3286C279.97 84.2211 279.739 84.0635 279.544 83.8649C279.349 83.6662 279.195 83.4303 279.089 83.1708C278.984 82.9112 278.93 82.633 278.93 82.352Z" fill="#CCCCCC"/>
<path d="M305.491 111.355V90.8546C305.491 90.2872 305.712 89.7431 306.105 89.3419C306.498 88.9407 307.032 88.7153 307.588 88.7153H324.616C325.172 88.7153 325.705 88.9407 326.098 89.3419C326.492 89.7431 326.712 90.2872 326.712 90.8546V111.355C326.712 111.923 326.492 112.467 326.098 112.868C325.705 113.269 325.172 113.495 324.616 113.495H307.588C307.032 113.495 306.499 113.269 306.106 112.868C305.713 112.467 305.492 111.923 305.492 111.355H305.491Z" fill="#FF6584"/>
<path d="M435.353 37.3908C437.345 37.3908 438.959 35.7434 438.959 33.7113C438.959 31.6791 437.345 30.0317 435.353 30.0317C433.362 30.0317 431.747 31.6791 431.747 33.7113C431.747 35.7434 433.362 37.3908 435.353 37.3908Z" fill="#F2F2F2"/>
<path d="M435.353 52.0546C437.345 52.0546 438.959 50.4072 438.959 48.3751C438.959 46.3429 437.345 44.6956 435.353 44.6956C433.362 44.6956 431.747 46.3429 431.747 48.3751C431.747 50.4072 433.362 52.0546 435.353 52.0546Z" fill="#F2F2F2"/>
<path d="M435.353 66.7189C437.345 66.7189 438.959 65.0716 438.959 63.0394C438.959 61.0072 437.345 59.3599 435.353 59.3599C433.362 59.3599 431.747 61.0072 431.747 63.0394C431.747 65.0716 433.362 66.7189 435.353 66.7189Z" fill="#F2F2F2"/>
<path d="M435.353 81.3828C437.345 81.3828 438.959 79.7354 438.959 77.7032C438.959 75.6711 437.345 74.0237 435.353 74.0237C433.362 74.0237 431.747 75.6711 431.747 77.7032C431.747 79.7354 433.362 81.3828 435.353 81.3828Z" fill="#F2F2F2"/>
<path d="M420.297 37.3908C422.288 37.3908 423.903 35.7434 423.903 33.7113C423.903 31.6791 422.288 30.0317 420.297 30.0317C418.305 30.0317 416.69 31.6791 416.69 33.7113C416.69 35.7434 418.305 37.3908 420.297 37.3908Z" fill="#F2F2F2"/>
<path d="M420.297 52.0546C422.288 52.0546 423.903 50.4072 423.903 48.3751C423.903 46.3429 422.288 44.6956 420.297 44.6956C418.305 44.6956 416.69 46.3429 416.69 48.3751C416.69 50.4072 418.305 52.0546 420.297 52.0546Z" fill="#F2F2F2"/>
<path d="M420.297 66.7189C422.288 66.7189 423.903 65.0716 423.903 63.0394C423.903 61.0072 422.288 59.3599 420.297 59.3599C418.305 59.3599 416.69 61.0072 416.69 63.0394C416.69 65.0716 418.305 66.7189 420.297 66.7189Z" fill="#F2F2F2"/>
<path d="M420.297 81.3828C422.288 81.3828 423.903 79.7354 423.903 77.7032C423.903 75.6711 422.288 74.0237 420.297 74.0237C418.305 74.0237 416.69 75.6711 416.69 77.7032C416.69 79.7354 418.305 81.3828 420.297 81.3828Z" fill="#F2F2F2"/>
<path d="M405.243 37.3908C407.235 37.3908 408.849 35.7434 408.849 33.7113C408.849 31.6791 407.235 30.0317 405.243 30.0317C403.251 30.0317 401.637 31.6791 401.637 33.7113C401.637 35.7434 403.251 37.3908 405.243 37.3908Z" fill="#F2F2F2"/>
<path d="M405.243 52.0546C407.235 52.0546 408.849 50.4072 408.849 48.3751C408.849 46.3429 407.235 44.6956 405.243 44.6956C403.251 44.6956 401.637 46.3429 401.637 48.3751C401.637 50.4072 403.251 52.0546 405.243 52.0546Z" fill="#F2F2F2"/>
<path d="M405.243 66.7189C407.235 66.7189 408.849 65.0716 408.849 63.0394C408.849 61.0072 407.235 59.3599 405.243 59.3599C403.251 59.3599 401.637 61.0072 401.637 63.0394C401.637 65.0716 403.251 66.7189 405.243 66.7189Z" fill="#F2F2F2"/>
<path d="M405.243 81.3828C407.235 81.3828 408.849 79.7354 408.849 77.7032C408.849 75.6711 407.235 74.0237 405.243 74.0237C403.251 74.0237 401.637 75.6711 401.637 77.7032C401.637 79.7354 403.251 81.3828 405.243 81.3828Z" fill="#F2F2F2"/>
<path d="M390.187 37.3908C392.179 37.3908 393.793 35.7434 393.793 33.7113C393.793 31.6791 392.179 30.0317 390.187 30.0317C388.196 30.0317 386.581 31.6791 386.581 33.7113C386.581 35.7434 388.196 37.3908 390.187 37.3908Z" fill="#F2F2F2"/>
<path d="M390.187 52.0546C392.179 52.0546 393.793 50.4072 393.793 48.3751C393.793 46.3429 392.179 44.6956 390.187 44.6956C388.196 44.6956 386.581 46.3429 386.581 48.3751C386.581 50.4072 388.196 52.0546 390.187 52.0546Z" fill="#F2F2F2"/>
<path d="M390.187 66.7189C392.179 66.7189 393.793 65.0716 393.793 63.0394C393.793 61.0072 392.179 59.3599 390.187 59.3599C388.196 59.3599 386.581 61.0072 386.581 63.0394C386.581 65.0716 388.196 66.7189 390.187 66.7189Z" fill="#F2F2F2"/>
<path d="M390.187 81.3828C392.179 81.3828 393.793 79.7354 393.793 77.7032C393.793 75.6711 392.179 74.0237 390.187 74.0237C388.196 74.0237 386.581 75.6711 386.581 77.7032C386.581 79.7354 388.196 81.3828 390.187 81.3828Z" fill="#F2F2F2"/>
<path d="M375.132 37.3908C377.123 37.3908 378.738 35.7434 378.738 33.7113C378.738 31.6791 377.123 30.0317 375.132 30.0317C373.14 30.0317 371.525 31.6791 371.525 33.7113C371.525 35.7434 373.14 37.3908 375.132 37.3908Z" fill="#F2F2F2"/>
<path d="M375.132 52.0546C377.123 52.0546 378.738 50.4072 378.738 48.3751C378.738 46.3429 377.123 44.6956 375.132 44.6956C373.14 44.6956 371.525 46.3429 371.525 48.3751C371.525 50.4072 373.14 52.0546 375.132 52.0546Z" fill="#F2F2F2"/>
<path d="M375.132 66.7189C377.123 66.7189 378.738 65.0716 378.738 63.0394C378.738 61.0072 377.123 59.3599 375.132 59.3599C373.14 59.3599 371.525 61.0072 371.525 63.0394C371.525 65.0716 373.14 66.7189 375.132 66.7189Z" fill="#F2F2F2"/>
<path d="M375.132 81.3828C377.123 81.3828 378.738 79.7354 378.738 77.7032C378.738 75.6711 377.123 74.0237 375.132 74.0237C373.14 74.0237 371.525 75.6711 371.525 77.7032C371.525 79.7354 373.14 81.3828 375.132 81.3828Z" fill="#F2F2F2"/>
<path d="M360.075 37.3908C362.067 37.3908 363.681 35.7434 363.681 33.7113C363.681 31.6791 362.067 30.0317 360.075 30.0317C358.083 30.0317 356.469 31.6791 356.469 33.7113C356.469 35.7434 358.083 37.3908 360.075 37.3908Z" fill="#F2F2F2"/>
<path d="M360.075 52.0546C362.067 52.0546 363.681 50.4072 363.681 48.3751C363.681 46.3429 362.067 44.6956 360.075 44.6956C358.083 44.6956 356.469 46.3429 356.469 48.3751C356.469 50.4072 358.083 52.0546 360.075 52.0546Z" fill="#F2F2F2"/>
<path d="M360.075 66.7189C362.067 66.7189 363.681 65.0716 363.681 63.0394C363.681 61.0072 362.067 59.3599 360.075 59.3599C358.083 59.3599 356.469 61.0072 356.469 63.0394C356.469 65.0716 358.083 66.7189 360.075 66.7189Z" fill="#F2F2F2"/>
<path d="M360.075 81.3828C362.067 81.3828 363.681 79.7354 363.681 77.7032C363.681 75.6711 362.067 74.0237 360.075 74.0237C358.083 74.0237 356.469 75.6711 356.469 77.7032C356.469 79.7354 358.083 81.3828 360.075 81.3828Z" fill="#F2F2F2"/>
<path d="M374.603 164.249C374.307 163.421 374.186 162.538 374.248 161.658C374.31 160.778 374.554 159.922 374.963 159.145C375.372 158.368 375.937 157.688 376.621 157.149C377.306 156.611 378.094 156.226 378.935 156.02C379.201 155.956 379.471 155.911 379.744 155.886L393.295 131.649L389.873 125.65L398.391 118.945L404.907 128.18C405.684 129.29 406.09 130.627 406.064 131.991C406.038 133.355 405.581 134.674 404.762 135.752L386.158 160.055C386.225 160.248 386.283 160.444 386.331 160.643C386.533 161.501 386.555 162.392 386.395 163.259C386.236 164.126 385.899 164.949 385.406 165.673C384.913 166.398 384.276 167.008 383.536 167.464C382.796 167.92 381.97 168.211 381.112 168.318C380.863 168.351 380.612 168.367 380.361 168.367C379.104 168.363 377.878 167.966 376.849 167.23C375.819 166.494 375.035 165.454 374.602 164.249H374.603Z" fill="#FFB8B8"/>
<path d="M348.163 283.523H341.327L338.075 256.618H348.165L348.163 283.523Z" fill="#FFB8B8"/>
<path d="M336.444 281.53H349.628V290H328.143C328.143 287.754 329.017 285.599 330.574 284.011C332.131 282.422 334.242 281.53 336.444 281.53Z" fill="#2F2E41"/>
<path d="M404.483 283.523H397.647L394.395 256.618H404.484L404.483 283.523Z" fill="#FFB8B8"/>
<path d="M392.763 281.53H405.947V290H384.462C384.462 287.754 385.337 285.599 386.893 284.011C388.45 282.422 390.562 281.53 392.763 281.53Z" fill="#2F2E41"/>
<path d="M400.284 120.255L384.936 126.206L381.189 115.585C380.692 114.175 380.699 112.631 381.209 111.226C381.72 109.82 382.7 108.644 383.978 107.905C385.271 107.158 386.783 106.907 388.241 107.197C389.7 107.488 391.008 108.301 391.931 109.489L400.284 120.255Z" fill="#0E0E0E"/>
<path d="M348.753 261.732L335.881 258.737C335.197 258.577 334.597 258.158 334.203 257.565C333.809 256.972 333.649 256.248 333.756 255.54C338.921 222.137 343.89 202.575 356.699 177.732C356.879 177.269 358.878 167.867 360.182 161.638C360.167 160.952 360.398 160.284 360.83 159.758C361.262 159.232 361.867 158.884 362.532 158.78L386.534 155.01C386.897 154.882 387.279 154.824 387.662 154.837L387.901 154.884L387.898 155.125C387.895 155.373 387.652 155.412 387.561 155.426L387.242 155.476C387.606 155.649 387.94 155.881 388.231 156.163C398.748 169.068 404.217 211.375 411.162 258.114C411.201 258.494 411.156 258.878 411.03 259.237C410.905 259.597 410.701 259.923 410.435 260.192C410.184 260.472 409.879 260.697 409.54 260.854C409.201 261.01 408.835 261.095 408.463 261.103L393.127 261.484C392.454 261.5 391.797 261.265 391.281 260.823C390.764 260.381 390.423 259.763 390.32 259.084L379.99 198.177C379.92 197.7 379.703 197.258 379.369 196.916C379.036 196.574 378.604 196.35 378.137 196.276C377.67 196.202 377.192 196.283 376.773 196.506C376.354 196.729 376.016 197.083 375.808 197.516C367.474 214.832 359.703 229.807 352.049 259.684C351.898 260.289 351.553 260.827 351.069 261.21C350.585 261.594 349.99 261.803 349.377 261.804C349.167 261.804 348.957 261.78 348.752 261.732L348.753 261.732Z" fill="#2F2E41"/>
<path d="M361.249 162.335C360.927 162.102 360.656 161.802 360.456 161.454C360.255 161.106 360.13 160.719 360.087 160.318C358.121 141.594 359.488 126.941 364.273 115.521C365.115 113.552 366.384 111.802 367.984 110.405C369.584 109.008 371.473 107.998 373.51 107.453L385.917 106.814L385.981 106.846C388.781 108.245 391.064 110.527 392.492 113.354C393.92 116.182 394.418 119.403 393.91 122.541C389.92 133.274 386.579 144.448 389.127 153.462C389.234 153.839 389.265 154.234 389.219 154.623C389.173 155.013 389.05 155.389 388.858 155.728C388.671 156.057 388.421 156.343 388.122 156.569C387.823 156.795 387.483 156.956 387.12 157.042L363.492 162.777C363.109 162.87 362.711 162.879 362.325 162.802C361.939 162.726 361.573 162.566 361.252 162.335L361.249 162.335Z" fill="#0E0E0E"/>
<path d="M355.908 135.466L332.112 116.311C331.923 116.379 331.73 116.437 331.534 116.485C330.694 116.685 329.822 116.703 328.975 116.537C328.128 116.371 327.325 116.025 326.617 115.522C325.905 115.018 325.306 114.365 324.861 113.606C324.416 112.847 324.135 112 324.037 111.121C323.856 109.535 324.277 107.938 325.212 106.657C326.148 105.377 327.528 104.509 329.069 104.233C330.611 103.957 332.198 104.292 333.505 105.171C334.812 106.049 335.741 107.404 336.101 108.959C336.162 109.231 336.205 109.507 336.229 109.785L359.917 123.729L365.812 120.266L372.341 128.989L363.189 135.645C362.117 136.418 360.83 136.817 359.518 136.784C358.206 136.751 356.939 136.287 355.906 135.462L355.908 135.466Z" fill="#FFB8B8"/>
<path d="M375.246 131.706L361.669 122.285L368.05 113.065C368.897 111.84 370.142 110.961 371.563 110.582C372.984 110.204 374.491 110.349 375.817 110.994C377.158 111.646 378.226 112.767 378.829 114.153C379.432 115.538 379.529 117.098 379.104 118.551L375.246 131.706Z" fill="#0E0E0E"/>
<path d="M381.776 102.084C389.34 102.084 395.471 95.8278 395.471 88.11C395.471 80.3923 389.34 74.1357 381.776 74.1357C374.212 74.1357 368.08 80.3923 368.08 88.11C368.08 95.8278 374.212 102.084 381.776 102.084Z" fill="#FFB8B8"/>
<path d="M376.755 86.0287C373.235 88.487 368.613 91.0138 365.018 88.396C363.893 87.5221 363.076 86.3001 362.689 84.9129C362.302 83.5257 362.366 82.0479 362.871 80.7007C364.593 75.6777 369.322 73.4663 373.845 71.7714C379.725 69.568 386.125 67.815 392.197 69.3925C398.269 70.9701 403.632 76.9668 402.536 83.2599C401.655 88.3202 396.976 92.5308 397.641 97.6235C398.309 102.751 403.96 105.447 408.95 106.364C413.939 107.281 419.523 107.575 423.108 111.232C427.682 115.897 426.54 124.234 422.236 129.159C417.932 134.085 411.436 136.317 405.143 137.834C396.804 139.845 387.785 140.902 379.864 137.565C371.943 134.228 365.78 125.245 368.075 116.821C369.044 113.263 371.327 110.256 373.533 107.328C375.739 104.4 377.974 101.338 378.815 97.747C379.516 94.752 378.995 91.2785 377.052 89.0335C376.698 88.6405 376.475 88.1431 376.416 87.6129C376.356 87.0827 376.463 86.5469 376.721 86.0825L376.755 86.0287Z" fill="#2F2E41"/>
</svg>
