<svg width="87" height="51" viewBox="0 0 87 51" fill="none" xmlns="http://www.w3.org/2000/svg">
<path d="M0.812988 35V15.5664L6.36719 21.1206V29.4458H24.8853V35H0.812988ZM6.36719 20.1929L0.812988 14.6387V10.9277L6.36719 16.4819V20.1929ZM6.36719 13.7109L0.812988 8.15674V5.37354L6.36719 10.9277V13.7109ZM6.36719 7.229L0.812988 1.6748V0.74707L6.36719 6.30127V7.229ZM52.6685 50.7349L47.1143 45.1807V44.2529L52.6685 49.8071V50.7349ZM52.6685 46.1084L47.1143 40.5542V37.771L52.6685 43.3252V46.1084ZM52.6685 40.5542L47.1143 35V31.3013L52.6685 36.8433V40.5542ZM28.5962 35V22.9639H40.6323L46.1865 28.5303H34.1504V35H28.5962ZM52.6685 35.9155L47.1143 30.3735V22.0483H28.5962L23.0542 16.4819H52.6685V35.9155ZM56.3794 35V16.4819H65.6445L71.1987 22.0483H61.9336V29.4458H74.8975V28.5303H62.8613L68.4155 22.9639H80.4517V35H56.3794ZM72.1265 22.0483L66.5601 16.4819H70.271L75.8252 22.0483H72.1265ZM78.6084 22.0483L73.042 16.4819H75.8252L81.3794 22.0483H78.6084ZM85.0781 22.0483L79.5239 16.4819H80.4517L86.0059 22.0483H85.0781Z" fill="black"/>
</svg>
